<?xml version="1.0" encoding="UTF-8"?>
<svg width="3649px" height="1924px" viewBox="0 0 3649 1924" version="1.1" xmlns="http://www.w3.org/2000/svg" xmlns:xlink="http://www.w3.org/1999/xlink">
    <!-- Generator: Sketch 54.1 (76490) - https://sketchapp.com -->
    <title>Artboard</title>
    <desc>Created with Sketch.</desc>
    <defs>
        <linearGradient x1="50%" y1="84.5023242%" x2="50%" y2="25.8976764%" id="linearGradient-1">
            <stop stop-color="#F5F7FA" offset="0%"></stop>
            <stop stop-color="#E7EDF6" offset="100%"></stop>
        </linearGradient>
    </defs>
    <g id="Artboard" stroke="none" stroke-width="1" fill="none" fill-rule="evenodd">
        <rect id="Rectangle" fill="#F5F7FA" x="-29.0371353" y="-102.282073" width="3706.75164" height="2128.8868"></rect>
        <path d="M446.203979,469.787691 C304.902243,469.787691 190.354553,355.232352 190.354553,213.921181 C190.354553,72.6100091 304.902243,-41.9453295 446.203979,-41.9453295 C587.505715,-41.9453295 702.053404,72.6100091 702.053404,213.921181 C702.053404,355.232352 587.505715,469.787691 446.203979,469.787691 Z M446.203979,340.991415 C516.378245,340.991415 573.265728,284.100133 573.265728,213.921181 C573.265728,143.742228 516.378245,86.8509466 446.203979,86.8509466 C376.029712,86.8509466 319.14223,143.742228 319.14223,213.921181 C319.14223,284.100133 376.029712,340.991415 446.203979,340.991415 Z M2088.09266,650.475264 C1851.28307,650.475264 1659.31096,458.49034 1659.31096,221.664934 C1659.31096,-15.1604723 1851.28307,-207.145397 2088.09266,-207.145397 C2324.90225,-207.145397 2516.87436,-15.1604723 2516.87436,221.664934 C2516.87436,458.49034 2324.90225,650.475264 2088.09266,650.475264 Z M2088.09266,434.62375 C2205.69871,434.62375 2301.03726,339.27884 2301.03726,221.664934 C2301.03726,104.051027 2205.69871,8.70611791 2088.09266,8.70611791 C1970.48661,8.70611791 1875.14807,104.051027 1875.14807,221.664934 C1875.14807,339.27884 1970.48661,434.62375 2088.09266,434.62375 Z M2304.58064,1463.56934 C2119.62326,1463.56934 1969.68568,1313.62175 1969.68568,1128.65202 C1969.68568,943.682291 2119.62326,793.734697 2304.58064,793.734697 C2489.53802,793.734697 2639.4756,943.682291 2639.4756,1128.65202 C2639.4756,1313.62175 2489.53802,1463.56934 2304.58064,1463.56934 Z M2304.58064,1294.98103 C2396.43548,1294.98103 2470.89854,1220.513 2470.89854,1128.65202 C2470.89854,1036.79105 2396.43548,962.323013 2304.58064,962.323013 C2212.7258,962.323013 2138.26274,1036.79105 2138.26274,1128.65202 C2138.26274,1220.513 2212.7258,1294.98103 2304.58064,1294.98103 Z M430.394872,883.433171 C352.705645,883.433171 289.726083,820.449404 289.726083,742.754989 C289.726083,665.060574 352.705645,602.076807 430.394872,602.076807 C508.084099,602.076807 571.06366,665.060574 571.06366,742.754989 C571.06366,820.449404 508.084099,883.433171 430.394872,883.433171 Z M430.394872,812.619582 C468.977444,812.619582 500.254799,781.340138 500.254799,742.754989 C500.254799,704.16984 468.977444,672.890396 430.394872,672.890396 C391.812299,672.890396 360.534944,704.16984 360.534944,742.754989 C360.534944,781.340138 391.812299,812.619582 430.394872,812.619582 Z M2789.82343,861.169881 C2658.50013,861.169881 2552.04156,754.704201 2552.04156,623.372128 C2552.04156,492.040056 2658.50013,385.574375 2789.82343,385.574375 C2921.14673,385.574375 3027.60531,492.040056 3027.60531,623.372128 C3027.60531,754.704201 2921.14673,861.169881 2789.82343,861.169881 Z M2789.82343,741.468928 C2855.04214,741.468928 2907.91235,688.59519 2907.91235,623.372128 C2907.91235,558.149066 2855.04214,505.275328 2789.82343,505.275328 C2724.60472,505.275328 2671.73452,558.149066 2671.73452,623.372128 C2671.73452,688.59519 2724.60472,741.468928 2789.82343,741.468928 Z M3663.51857,1262.23176 C3448.80408,1262.23176 3274.74359,1088.15965 3274.74359,873.430823 C3274.74359,658.701994 3448.80408,484.629884 3663.51857,484.629884 C3878.23306,484.629884 4052.29355,658.701994 4052.29355,873.430823 C4052.29355,1088.15965 3878.23306,1262.23176 3663.51857,1262.23176 Z M3663.51857,1066.51989 C3770.1516,1066.51989 3856.59474,980.070972 3856.59474,873.430823 C3856.59474,766.790675 3770.1516,680.341754 3663.51857,680.341754 C3556.88554,680.341754 3470.44239,766.790675 3470.44239,873.430823 C3470.44239,980.070972 3556.88554,1066.51989 3663.51857,1066.51989 Z M3036.96172,1998.21097 C2824.38546,1998.21097 2652.05836,1825.87236 2652.05836,1613.28191 C2652.05836,1400.69145 2824.38546,1228.35284 3036.96172,1228.35284 C3249.53797,1228.35284 3421.86508,1400.69145 3421.86508,1613.28191 C3421.86508,1825.87236 3249.53797,1998.21097 3036.96172,1998.21097 Z M3036.96172,1804.4481 C3142.53284,1804.4481 3228.11514,1718.86008 3228.11514,1613.28191 C3228.11514,1507.70373 3142.53284,1422.11571 3036.96172,1422.11571 C2931.39059,1422.11571 2845.80829,1507.70373 2845.80829,1613.28191 C2845.80829,1718.86008 2931.39059,1804.4481 3036.96172,1804.4481 Z M3363.30685,262.319638 C3275.37191,262.319638 3204.08656,191.029525 3204.08656,103.088714 C3204.08656,15.1479027 3275.37191,-56.1422103 3363.30685,-56.1422103 C3451.24179,-56.1422103 3522.52714,15.1479027 3522.52714,103.088714 C3522.52714,191.029525 3451.24179,262.319638 3363.30685,262.319638 Z M3363.30685,182.1671 C3406.97772,182.1671 3442.37996,146.762501 3442.37996,103.088714 C3442.37996,59.4149268 3406.97772,24.0103273 3363.30685,24.0103273 C3319.63598,24.0103273 3284.23375,59.4149268 3284.23375,103.088714 C3284.23375,146.762501 3319.63598,182.1671 3363.30685,182.1671 Z M513.150707,1904.96327 C425.215768,1904.96327 353.930416,1833.67316 353.930416,1745.73235 C353.930416,1657.79154 425.215768,1586.50143 513.150707,1586.50143 C601.085646,1586.50143 672.370999,1657.79154 672.370999,1745.73235 C672.370999,1833.67316 601.085646,1904.96327 513.150707,1904.96327 Z M513.150707,1824.81074 C556.821578,1824.81074 592.223814,1789.40614 592.223814,1745.73235 C592.223814,1702.05856 556.821578,1666.65396 513.150707,1666.65396 C469.479837,1666.65396 434.077601,1702.05856 434.077601,1745.73235 C434.077601,1789.40614 469.479837,1824.81074 513.150707,1824.81074 Z M1836.59881,1799.77729 C1748.66387,1799.77729 1677.37851,1728.48718 1677.37851,1640.54637 C1677.37851,1552.60556 1748.66387,1481.31545 1836.59881,1481.31545 C1924.53375,1481.31545 1995.8191,1552.60556 1995.8191,1640.54637 C1995.8191,1728.48718 1924.53375,1799.77729 1836.59881,1799.77729 Z M1836.59881,1719.62476 C1880.26968,1719.62476 1915.67191,1684.22016 1915.67191,1640.54637 C1915.67191,1596.87258 1880.26968,1561.46798 1836.59881,1561.46798 C1792.92794,1561.46798 1757.5257,1596.87258 1757.5257,1640.54637 C1757.5257,1684.22016 1792.92794,1719.62476 1836.59881,1719.62476 Z M1172.29368,260.061043 C1084.35874,260.061043 1013.07339,188.77093 1013.07339,100.830119 C1013.07339,12.889308 1084.35874,-58.400805 1172.29368,-58.400805 C1260.22862,-58.400805 1331.51397,12.889308 1331.51397,100.830119 C1331.51397,188.77093 1260.22862,260.061043 1172.29368,260.061043 Z M1172.29368,179.908506 C1215.96455,179.908506 1251.36678,144.503906 1251.36678,100.830119 C1251.36678,57.1563322 1215.96455,21.7517326 1172.29368,21.7517326 C1128.62281,21.7517326 1093.22057,57.1563322 1093.22057,100.830119 C1093.22057,144.503906 1128.62281,179.908506 1172.29368,179.908506 Z M184.063174,1561.33423 C13.2716057,1561.33423 -125.182317,1422.87106 -125.182317,1252.06809 C-125.182317,1081.26511 13.2716057,942.801945 184.063174,942.801945 C354.854743,942.801945 493.308665,1081.26511 493.308665,1252.06809 C493.308665,1422.87106 354.854743,1561.33423 184.063174,1561.33423 Z M184.063174,1405.65802 C268.88289,1405.65802 337.642855,1336.89347 337.642855,1252.06809 C337.642855,1167.24271 268.88289,1098.47815 184.063174,1098.47815 C99.2434588,1098.47815 30.4834937,1167.24271 30.4834937,1252.06809 C30.4834937,1336.89347 99.2434588,1405.65802 184.063174,1405.65802 Z M1108.08935,2305.7025 C937.297777,2305.7025 798.843855,2167.23933 798.843855,1996.43636 C798.843855,1825.63338 937.297777,1687.17022 1108.08935,1687.17022 C1278.88091,1687.17022 1417.33484,1825.63338 1417.33484,1996.43636 C1417.33484,2167.23933 1278.88091,2305.7025 1108.08935,2305.7025 Z M1108.08935,2150.02629 C1192.90906,2150.02629 1261.66903,2081.26174 1261.66903,1996.43636 C1261.66903,1911.61098 1192.90906,1842.84642 1108.08935,1842.84642 C1023.26963,1842.84642 954.509665,1911.61098 954.509665,1996.43636 C954.509665,2081.26174 1023.26963,2150.02629 1108.08935,2150.02629 Z M1218.10782,1565.2061 C916.349326,1565.2061 671.725729,1320.56617 671.725729,1018.78752 C671.725729,717.008874 916.349326,472.368942 1218.10782,472.368942 C1519.86632,472.368942 1764.48992,717.008874 1764.48992,1018.78752 C1764.48992,1320.56617 1519.86632,1565.2061 1218.10782,1565.2061 Z M1218.10782,1290.15378 C1367.96926,1290.15378 1489.45596,1168.65897 1489.45596,1018.78752 C1489.45596,868.916078 1367.96926,747.421267 1218.10782,747.421267 C1068.24639,747.421267 946.759688,868.916078 946.759688,1018.78752 C946.759688,1168.65897 1068.24639,1290.15378 1218.10782,1290.15378 Z" id="Combined-Shape" fill="url(#linearGradient-1)" fill-rule="nonzero"></path>
    </g>
</svg>