<?xml version="1.0" encoding="UTF-8"?>
<svg width="451px" height="436px" viewBox="0 0 451 436" version="1.1" xmlns="http://www.w3.org/2000/svg" xmlns:xlink="http://www.w3.org/1999/xlink">
    <!-- Generator: Sketch 54.1 (76490) - https://sketchapp.com -->
    <title>Group 14</title>
    <desc>Created with Sketch.</desc>
    <defs>
        <linearGradient x1="35.2653061%" y1="0%" x2="65.3240811%" y2="100.999999%" id="linearGradient-1">
            <stop stop-color="#3023AE" offset="0%"></stop>
            <stop stop-color="#C86DD7" offset="100%"></stop>
        </linearGradient>
    </defs>
    <g id="Page-2" stroke="none" stroke-width="1" fill="none" fill-rule="evenodd">
        <g id="Desktop-HD-Copy-3" transform="translate(-775.000000, -2237.000000)">
            <g id="Group-14" transform="translate(775.000000, 2220.000000)">
                <g id="schem-hotspot" transform="translate(0.000000, 248.000000)" stroke="#39393B">
                    <g id="Group-10">
                        <path d="M25,1.5 C12.0213084,1.5 1.5,12.0213084 1.5,25 L1.5,80.7755622 C1.5,93.7542539 12.0213084,104.275562 25,104.275562 L80.7755622,104.275562 C93.7542539,104.275562 104.275562,93.7542539 104.275562,80.7755622 L104.275562,25 C104.275562,12.0213084 93.7542539,1.5 80.7755622,1.5 L25,1.5 Z" id="Rectangle" stroke-width="3" fill="#FFFFFF"></path>
                        <path d="M52.8877811,10.8877811 C29.6918216,10.8877811 10.8877811,29.6918216 10.8877811,52.8877811 C10.8877811,76.0837406 29.6918216,94.8877811 52.8877811,94.8877811 C76.0837406,94.8877811 94.8877811,76.0837406 94.8877811,52.8877811 C94.8877811,29.6918216 76.0837406,10.8877811 52.8877811,10.8877811 Z" id="Rectangle" stroke-width="2"></path>
                    </g>
                </g>
                <g id="schem-hotspot" transform="translate(345.000000, 248.000000)" stroke="#39393B">
                    <g id="Group-10">
                        <path d="M25,1.5 C12.0213084,1.5 1.5,12.0213084 1.5,25 L1.5,80.7755622 C1.5,93.7542539 12.0213084,104.275562 25,104.275562 L80.7755622,104.275562 C93.7542539,104.275562 104.275562,93.7542539 104.275562,80.7755622 L104.275562,25 C104.275562,12.0213084 93.7542539,1.5 80.7755622,1.5 L25,1.5 Z" id="Rectangle" stroke-width="3" fill="#FFFFFF"></path>
                        <path d="M52.8877811,10.8877811 C29.6918216,10.8877811 10.8877811,29.6918216 10.8877811,52.8877811 C10.8877811,76.0837406 29.6918216,94.8877811 52.8877811,94.8877811 C76.0837406,94.8877811 94.8877811,76.0837406 94.8877811,52.8877811 C94.8877811,29.6918216 76.0837406,10.8877811 52.8877811,10.8877811 Z" id="Rectangle" stroke-width="2"></path>
                    </g>
                </g>
                <g id="schem-hotspot" transform="translate(172.500000, 347.000000)" stroke="#39393B">
                    <g id="Group-10">
                        <path d="M25,1.5 C12.0213084,1.5 1.5,12.0213084 1.5,25 L1.5,80.7755622 C1.5,93.7542539 12.0213084,104.275562 25,104.275562 L80.7755622,104.275562 C93.7542539,104.275562 104.275562,93.7542539 104.275562,80.7755622 L104.275562,25 C104.275562,12.0213084 93.7542539,1.5 80.7755622,1.5 L25,1.5 Z" id="Rectangle" stroke-width="3" fill="#FFFFFF"></path>
                        <path d="M52.8877811,10.8877811 C29.6918216,10.8877811 10.8877811,29.6918216 10.8877811,52.8877811 C10.8877811,76.0837406 29.6918216,94.8877811 52.8877811,94.8877811 C76.0837406,94.8877811 94.8877811,76.0837406 94.8877811,52.8877811 C94.8877811,29.6918216 76.0837406,10.8877811 52.8877811,10.8877811 Z" id="Rectangle" stroke-width="2"></path>
                    </g>
                </g>
                <path d="M210.740442,73.9129015 L210.740442,75.7456556 L192.412902,75.7456556 L192.412902,17 L210.740442,17 L210.740442,44.2920829 C215.183737,42.0737697 220.196129,40.8258031 225.5,40.8258031 C243.7735,40.8258031 258.587098,55.6394017 258.587098,73.9129015 C258.587098,92.1864014 243.7735,107 225.5,107 C221.185347,107 216.970852,106.169023 213.045084,104.573127 L219.947055,87.5948605 C221.690086,88.303434 223.561684,88.6724592 225.5,88.6724592 C233.651479,88.6724592 240.259558,82.0643801 240.259558,73.9129015 C240.259558,65.761423 233.651479,59.1533439 225.5,59.1533439 C217.348521,59.1533439 210.740442,65.761423 210.740442,73.9129015 Z M178,124 L273,124 C283.49341,124 292,132.50659 292,143 L292,162 L159,162 L159,143 C159,132.50659 167.50659,124 178,124 Z M159,165.5 L292,165.5 L292,203.5 L159,203.5 L159,165.5 Z M159,207 L292,207 L292,226 C292,236.49341 283.49341,245 273,245 L178,245 C167.50659,245 159,236.49341 159,226 L159,207 Z" id="Combined-Shape" fill="url(#linearGradient-1)" fill-rule="nonzero"></path>
                <path id="Path-14" d="M225,320.727464 L225,258.801526 L226,258.801526 L226,320.727464 C228.249975,320.976187 230,322.883723 230,325.2 C230,327.685281 227.985281,329.7 225.5,329.7 C223.014719,329.7 221,327.685281 221,325.2 C221,322.883723 222.750025,320.976187 225,320.727464 Z" fill="#9353C9" fill-rule="nonzero"></path>
                <path id="Path-2" d="M139.972536,298.053117 L205.5,298.053117 C210.746705,298.053117 215,293.799823 215,288.553117 L215,258.2 L216,258.2 L216,288.553117 C216,294.352107 211.29899,299.053117 205.5,299.053117 L139.972536,299.053117 C139.723813,301.303093 137.816277,303.053117 135.5,303.053117 C133.014719,303.053117 131,301.038399 131,298.553117 C131,296.067836 133.014719,294.053117 135.5,294.053117 C137.816277,294.053117 139.723813,295.803142 139.972536,298.053117 Z" fill="#3A28B1" fill-rule="nonzero"></path>
                <path id="Path-15" d="M311.027464,299.053117 L245.5,299.053117 C239.70101,299.053117 235,294.352107 235,288.553117 L235,258.2 L236,258.2 L236,288.553117 C236,293.799823 240.253295,298.053117 245.5,298.053117 L311.027464,298.053117 C311.276187,295.803142 313.183723,294.053117 315.5,294.053117 C317.985281,294.053117 320,296.067836 320,298.553117 C320,301.038399 317.985281,303.053117 315.5,303.053117 C313.183723,303.053117 311.276187,301.303093 311.027464,299.053117 Z" fill="#C36BD6" fill-rule="nonzero"></path>
                <path d="M181.2015,148 L184.8285,138.9 L186.1675,138.9 L189.6125,148 L187.7665,148 L187.1295,146.206 L183.6195,146.206 L182.9695,148 L181.2015,148 Z M185.3875,141.357 L184.1135,144.854 L186.6485,144.854 L185.4005,141.357 L185.3875,141.357 Z M196.7755,148 L195.3455,148 L195.2675,147.012 C194.7345,147.779 193.9415,148.156 193.1355,148.156 C192.3295,148.156 191.7055,147.831 191.2895,147.298 C190.7955,146.648 190.6915,145.764 190.6915,144.789 L190.6915,141.305 L192.2645,141.305 L192.2645,144.672 C192.2645,145.231 192.2775,145.855 192.5245,146.271 C192.7195,146.609 193.0575,146.778 193.5385,146.778 C194.1625,146.778 194.8125,146.375 195.2025,145.751 L195.2025,141.305 L196.7755,141.305 L196.7755,148 Z M202.1185,142.631 L200.3505,142.631 L200.3505,145.4 C200.3505,145.595 200.3505,145.751 200.3635,145.959 C200.4155,146.479 200.5975,146.778 201.0915,146.778 C201.3775,146.778 201.6115,146.713 201.8325,146.596 L202.3005,147.792 C201.9105,148.013 201.3385,148.143 200.8445,148.143 C199.8435,148.143 199.1935,147.636 198.9335,146.869 C198.8035,146.518 198.7645,146.076 198.7645,145.634 L198.7645,142.631 L197.9325,142.631 L197.9325,141.305 L198.7645,141.305 L198.9335,139.771 L200.3505,139.771 L200.3505,141.305 L202.1185,141.305 L202.1185,142.631 Z M205.0045,138.25 L205.0045,142.215 C205.5245,141.5 206.2915,141.149 207.0715,141.149 C207.8775,141.149 208.5015,141.474 208.9175,142.007 C209.4115,142.657 209.5155,143.541 209.5155,144.516 L209.5155,148 L207.9425,148 L207.9425,144.633 C207.9425,144.074 207.9295,143.45 207.6825,143.034 C207.4875,142.696 207.1495,142.527 206.6685,142.527 C206.0445,142.527 205.3945,142.93 205.0045,143.554 L205.0045,148 L203.4315,148 L203.4315,138.25 L205.0045,138.25 Z M217.3675,145.049 L212.4925,145.049 C212.5965,146.05 213.2725,146.869 214.3645,146.869 C215.2355,146.869 215.7945,146.531 216.2105,145.829 L217.2765,146.544 C216.5355,147.636 215.6645,148.156 214.2735,148.156 C212.2065,148.156 210.9065,146.687 210.9065,144.698 C210.9065,142.683 212.3755,141.149 214.2735,141.149 C216.0935,141.149 217.4325,142.462 217.4325,144.256 C217.4325,144.503 217.4065,144.802 217.3675,145.049 Z M215.8205,143.918 C215.7815,143.047 215.1445,142.41 214.3125,142.41 C213.3505,142.41 212.7915,143.06 212.5835,143.918 L215.8205,143.918 Z M218.8885,141.305 L220.3185,141.305 L220.3965,142.293 C220.9295,141.526 221.7225,141.149 222.5285,141.149 C223.3345,141.149 223.9585,141.474 224.3745,142.007 C224.8685,142.657 224.9725,143.541 224.9725,144.516 L224.9725,148 L223.3995,148 L223.3995,144.633 C223.3995,144.074 223.3865,143.45 223.1395,143.034 C222.9445,142.696 222.6065,142.527 222.1255,142.527 C221.5015,142.527 220.8515,142.93 220.4615,143.554 L220.4615,148 L218.8885,148 L218.8885,141.305 Z M230.2505,142.631 L228.4825,142.631 L228.4825,145.4 C228.4825,145.595 228.4825,145.751 228.4955,145.959 C228.5475,146.479 228.7295,146.778 229.2235,146.778 C229.5095,146.778 229.7435,146.713 229.9645,146.596 L230.4325,147.792 C230.0425,148.013 229.4705,148.143 228.9765,148.143 C227.9755,148.143 227.3255,147.636 227.0655,146.869 C226.9355,146.518 226.8965,146.076 226.8965,145.634 L226.8965,142.631 L226.0645,142.631 L226.0645,141.305 L226.8965,141.305 L227.0655,139.771 L228.4825,139.771 L228.4825,141.305 L230.2505,141.305 L230.2505,142.631 Z M233.1365,148 L231.5635,148 L231.5635,141.305 L233.1365,141.305 L233.1365,148 Z M233.1365,140.213 L231.5635,140.213 L231.5635,138.744 L233.1365,138.744 L233.1365,140.213 Z M239.4415,146.284 L240.2605,147.402 C239.6755,147.909 238.8955,148.156 237.9985,148.156 C236.0485,148.156 234.5925,146.739 234.5925,144.646 C234.5925,142.696 236.0485,141.149 238.0635,141.149 C238.8825,141.149 239.6235,141.409 240.2215,141.864 L239.4415,143.034 C239.0645,142.709 238.6095,142.527 238.1155,142.527 C237.0235,142.527 236.1915,143.476 236.1915,144.646 C236.1915,145.894 237.0625,146.778 238.1025,146.778 C238.5835,146.778 239.0645,146.609 239.4415,146.284 Z M246.9685,148 L245.5645,148 L245.4865,147.376 C245.0055,147.948 244.3555,148.156 243.5885,148.156 C242.3405,148.156 241.1835,147.467 241.1835,146.063 C241.1835,144.399 242.7175,143.879 244.1345,143.879 C244.4855,143.879 244.9015,143.918 245.3955,144.022 L245.3955,143.866 C245.3955,142.956 244.9925,142.41 243.9655,142.41 C243.2115,142.41 242.4705,142.696 241.8985,142.995 L241.4695,141.812 C242.2625,141.422 243.2895,141.149 244.2515,141.149 C246.1495,141.149 246.9685,142.215 246.9685,143.957 L246.9685,148 Z M245.3955,146.323 L245.3955,145.036 C244.9925,144.945 244.6675,144.906 244.3685,144.906 C243.6275,144.906 242.7305,145.14 242.7305,146.011 C242.7305,146.687 243.2635,146.986 243.8745,146.986 C244.4595,146.986 244.9405,146.713 245.3955,146.323 Z M252.2465,142.631 L250.4785,142.631 L250.4785,145.4 C250.4785,145.595 250.4785,145.751 250.4915,145.959 C250.5435,146.479 250.7255,146.778 251.2195,146.778 C251.5055,146.778 251.7395,146.713 251.9605,146.596 L252.4285,147.792 C252.0385,148.013 251.4665,148.143 250.9725,148.143 C249.9715,148.143 249.3215,147.636 249.0615,146.869 C248.9315,146.518 248.8925,146.076 248.8925,145.634 L248.8925,142.631 L248.0605,142.631 L248.0605,141.305 L248.8925,141.305 L249.0615,139.771 L250.4785,139.771 L250.4785,141.305 L252.2465,141.305 L252.2465,142.631 Z M255.1325,148 L253.5595,148 L253.5595,141.305 L255.1325,141.305 L255.1325,148 Z M255.1325,140.213 L253.5595,140.213 L253.5595,138.744 L255.1325,138.744 L255.1325,140.213 Z M260.0595,141.149 C262.0615,141.149 263.5305,142.696 263.5305,144.646 C263.5305,146.609 262.0615,148.156 260.0595,148.156 C258.0575,148.156 256.5885,146.609 256.5885,144.646 C256.5885,142.696 258.0575,141.149 260.0595,141.149 Z M261.9315,144.646 C261.9315,143.476 261.1515,142.527 260.0595,142.527 C258.9675,142.527 258.1875,143.476 258.1875,144.646 C258.1875,145.829 258.9675,146.778 260.0595,146.778 C261.1515,146.778 261.9315,145.829 261.9315,144.646 Z M264.9865,141.305 L266.4165,141.305 L266.4945,142.293 C267.0275,141.526 267.8205,141.149 268.6265,141.149 C269.4325,141.149 270.0565,141.474 270.4725,142.007 C270.9665,142.657 271.0705,143.541 271.0705,144.516 L271.0705,148 L269.4975,148 L269.4975,144.633 C269.4975,144.074 269.4845,143.45 269.2375,143.034 C269.0425,142.696 268.7045,142.527 268.2235,142.527 C267.5995,142.527 266.9495,142.93 266.5595,143.554 L266.5595,148 L264.9865,148 L264.9865,141.305 Z" id="Authentication" fill="#FFFFFF" fill-rule="nonzero"></path>
                <path d="M197.6985,179.4 L200.5195,179.4 C202.0405,179.4 203.8475,180.141 203.8475,182.182 C203.8475,184.236 202.0535,184.977 200.5195,184.977 L199.3105,184.977 L199.3105,188.5 L197.6985,188.5 L197.6985,179.4 Z M199.3105,180.778 L199.3105,183.599 L200.2205,183.599 C201.3255,183.599 202.1445,183.235 202.1445,182.221 C202.1445,181.324 201.4685,180.778 200.4805,180.778 L199.3105,180.778 Z M210.6075,188.5 L209.2035,188.5 L209.1255,187.876 C208.6445,188.448 207.9945,188.656 207.2275,188.656 C205.9795,188.656 204.8225,187.967 204.8225,186.563 C204.8225,184.899 206.3565,184.379 207.7735,184.379 C208.1245,184.379 208.5405,184.418 209.0345,184.522 L209.0345,184.366 C209.0345,183.456 208.6315,182.91 207.6045,182.91 C206.8505,182.91 206.1095,183.196 205.5375,183.495 L205.1085,182.312 C205.9015,181.922 206.9285,181.649 207.8905,181.649 C209.7885,181.649 210.6075,182.715 210.6075,184.457 L210.6075,188.5 Z M209.0345,186.823 L209.0345,185.536 C208.6315,185.445 208.3065,185.406 208.0075,185.406 C207.2665,185.406 206.3695,185.64 206.3695,186.511 C206.3695,187.187 206.9025,187.486 207.5135,187.486 C208.0985,187.486 208.5795,187.213 209.0345,186.823 Z M211.5695,181.805 L213.2985,181.805 L214.8065,186.238 L214.8325,186.238 L216.3665,181.805 L218.0825,181.805 L214.3125,191.542 L212.9085,191.009 L213.9745,188.188 L211.5695,181.805 Z M229.2495,188.5 L227.6635,188.5 L227.6635,185.133 C227.6635,184.574 227.6635,183.95 227.4295,183.534 C227.2345,183.196 226.8965,183.027 226.4285,183.027 C225.8825,183.027 225.2975,183.378 224.8945,183.937 C224.9465,184.262 224.9595,184.639 224.9595,185.016 L224.9595,188.5 L223.3865,188.5 L223.3865,185.133 C223.3865,184.574 223.3865,183.911 223.1265,183.495 C222.9445,183.183 222.6195,183.027 222.1905,183.027 C221.6575,183.027 221.0595,183.443 220.6825,183.924 L220.6825,188.5 L219.1095,188.5 L219.1095,181.805 L220.5525,181.805 L220.6175,182.702 C221.1375,182 221.9175,181.649 222.6195,181.649 C223.3475,181.649 223.9975,181.961 224.4265,182.559 C224.4785,182.637 224.5175,182.715 224.5695,182.819 C225.1805,181.948 226.0385,181.649 226.8445,181.649 C227.6245,181.649 228.2355,181.961 228.6385,182.481 C229.1455,183.131 229.2495,184.028 229.2495,185.016 L229.2495,188.5 Z M237.1015,185.549 L232.2265,185.549 C232.3305,186.55 233.0065,187.369 234.0985,187.369 C234.9695,187.369 235.5285,187.031 235.9445,186.329 L237.0105,187.044 C236.2695,188.136 235.3985,188.656 234.0075,188.656 C231.9405,188.656 230.6405,187.187 230.6405,185.198 C230.6405,183.183 232.1095,181.649 234.0075,181.649 C235.8275,181.649 237.1665,182.962 237.1665,184.756 C237.1665,185.003 237.1405,185.302 237.1015,185.549 Z M235.5545,184.418 C235.5155,183.547 234.8785,182.91 234.0465,182.91 C233.0845,182.91 232.5255,183.56 232.3175,184.418 L235.5545,184.418 Z M238.6225,181.805 L240.0525,181.805 L240.1305,182.793 C240.6635,182.026 241.4565,181.649 242.2625,181.649 C243.0685,181.649 243.6925,181.974 244.1085,182.507 C244.6025,183.157 244.7065,184.041 244.7065,185.016 L244.7065,188.5 L243.1335,188.5 L243.1335,185.133 C243.1335,184.574 243.1205,183.95 242.8735,183.534 C242.6785,183.196 242.3405,183.027 241.8595,183.027 C241.2355,183.027 240.5855,183.43 240.1955,184.054 L240.1955,188.5 L238.6225,188.5 L238.6225,181.805 Z M249.9845,183.131 L248.2165,183.131 L248.2165,185.9 C248.2165,186.095 248.2165,186.251 248.2295,186.459 C248.2815,186.979 248.4635,187.278 248.9575,187.278 C249.2435,187.278 249.4775,187.213 249.6985,187.096 L250.1665,188.292 C249.7765,188.513 249.2045,188.643 248.7105,188.643 C247.7095,188.643 247.0595,188.136 246.7995,187.369 C246.6695,187.018 246.6305,186.576 246.6305,186.134 L246.6305,183.131 L245.7985,183.131 L245.7985,181.805 L246.6305,181.805 L246.7995,180.271 L248.2165,180.271 L248.2165,181.805 L249.9845,181.805 L249.9845,183.131 Z M255.6785,182.468 L254.7945,183.43 C254.4695,183.144 253.9625,182.91 253.4685,182.91 C253.0135,182.91 252.6755,183.157 252.6755,183.56 C252.6755,184.015 253.2345,184.249 253.8325,184.496 C254.6905,184.834 255.7825,185.289 255.7825,186.524 C255.7825,188.006 254.5605,188.656 253.2605,188.656 C252.2725,188.656 251.3755,188.266 250.7255,187.551 L251.6875,186.641 C252.1685,187.122 252.6235,187.395 253.2215,187.395 C253.7025,187.395 254.2225,187.161 254.2225,186.628 C254.2225,186.16 253.5725,185.9 252.9745,185.653 C252.1815,185.328 251.1675,184.873 251.1675,183.677 C251.1675,182.312 252.2855,181.649 253.4685,181.649 C254.3005,181.649 255.0935,181.922 255.6785,182.468 Z" id="Payments" fill="#FFFFFF" fill-rule="nonzero"></path>
                <path d="M203.4055,219.4 L206.2135,219.4 C207.6565,219.4 209.4505,220.141 209.4505,222.078 C209.4505,223.547 208.4365,224.327 207.3705,224.626 L210.1915,228.5 L208.1895,228.5 L205.5895,224.782 L205.0175,224.782 L205.0175,228.5 L203.4055,228.5 L203.4055,219.4 Z M205.0175,223.404 L205.9145,223.404 C206.9675,223.404 207.7475,223.027 207.7475,222.117 C207.7475,221.311 207.1105,220.778 206.1745,220.778 L205.0175,220.778 L205.0175,223.404 Z M214.3775,221.649 C216.3795,221.649 217.8485,223.196 217.8485,225.146 C217.8485,227.109 216.3795,228.656 214.3775,228.656 C212.3755,228.656 210.9065,227.109 210.9065,225.146 C210.9065,223.196 212.3755,221.649 214.3775,221.649 Z M216.2495,225.146 C216.2495,223.976 215.4695,223.027 214.3775,223.027 C213.2855,223.027 212.5055,223.976 212.5055,225.146 C212.5055,226.329 213.2855,227.278 214.3775,227.278 C215.4695,227.278 216.2495,226.329 216.2495,225.146 Z M225.3235,228.5 L223.8935,228.5 L223.8155,227.512 C223.2825,228.279 222.4895,228.656 221.6835,228.656 C220.8775,228.656 220.2535,228.331 219.8375,227.798 C219.3435,227.148 219.2395,226.264 219.2395,225.289 L219.2395,221.805 L220.8125,221.805 L220.8125,225.172 C220.8125,225.731 220.8255,226.355 221.0725,226.771 C221.2675,227.109 221.6055,227.278 222.0865,227.278 C222.7105,227.278 223.3605,226.875 223.7505,226.251 L223.7505,221.805 L225.3235,221.805 L225.3235,228.5 Z M230.6665,223.131 L228.8985,223.131 L228.8985,225.9 C228.8985,226.095 228.8985,226.251 228.9115,226.459 C228.9635,226.979 229.1455,227.278 229.6395,227.278 C229.9255,227.278 230.1595,227.213 230.3805,227.096 L230.8485,228.292 C230.4585,228.513 229.8865,228.643 229.3925,228.643 C228.3915,228.643 227.7415,228.136 227.4815,227.369 C227.3515,227.018 227.3125,226.576 227.3125,226.134 L227.3125,223.131 L226.4805,223.131 L226.4805,221.805 L227.3125,221.805 L227.4815,220.271 L228.8985,220.271 L228.8985,221.805 L230.6665,221.805 L230.6665,223.131 Z M233.5525,228.5 L231.9795,228.5 L231.9795,221.805 L233.5525,221.805 L233.5525,228.5 Z M233.5525,220.713 L231.9795,220.713 L231.9795,219.244 L233.5525,219.244 L233.5525,220.713 Z M235.5025,221.805 L236.9325,221.805 L237.0105,222.793 C237.5435,222.026 238.3365,221.649 239.1425,221.649 C239.9485,221.649 240.5725,221.974 240.9885,222.507 C241.4825,223.157 241.5865,224.041 241.5865,225.016 L241.5865,228.5 L240.0135,228.5 L240.0135,225.133 C240.0135,224.574 240.0005,223.95 239.7535,223.534 C239.5585,223.196 239.2205,223.027 238.7395,223.027 C238.1155,223.027 237.4655,223.43 237.0755,224.054 L237.0755,228.5 L235.5025,228.5 L235.5025,221.805 Z M249.8025,221.805 L249.8025,228.149 C249.8025,228.864 249.6595,229.449 249.3995,229.917 C248.8015,231.009 247.6575,231.438 246.4095,231.438 C245.3825,231.438 244.2645,231.139 243.3805,230.528 L243.9655,229.228 C244.6675,229.761 245.6295,230.06 246.3705,230.06 C247.3975,230.06 248.2165,229.54 248.2165,228.318 L248.2165,227.564 C247.7355,228.227 246.8905,228.5 246.1755,228.5 C244.3555,228.5 242.9775,226.992 242.9775,225.055 C242.9775,223.235 244.2905,221.649 246.2145,221.649 C246.9295,221.649 247.7745,221.935 248.2815,222.572 L248.3595,221.805 L249.8025,221.805 Z M248.2165,226.095 L248.2165,223.872 C247.7615,223.287 247.1245,223.027 246.5135,223.027 C245.2005,223.027 244.5765,224.08 244.5765,225.094 C244.5765,226.173 245.3175,227.122 246.4745,227.122 C247.1115,227.122 247.8395,226.81 248.2165,226.095 Z" id="Routing" fill="#FFFFFF" fill-rule="nonzero"></path>
            </g>
        </g>
    </g>
</svg>