<?xml version="1.0" encoding="UTF-8"?>
<svg width="2716px" height="1822px" viewBox="0 0 2716 1822" version="1.1" xmlns="http://www.w3.org/2000/svg" xmlns:xlink="http://www.w3.org/1999/xlink">
    <!-- Generator: Sketch 54.1 (76490) - https://sketchapp.com -->
    <title>Oval Copy 60</title>
    <desc>Created with Sketch.</desc>
    <defs>
        <rect id="path-1" x="0" y="0" width="2716" height="1822"></rect>
        <linearGradient x1="45.6120824%" y1="64.4804041%" x2="45.6120824%" y2="25.6862145%" id="linearGradient-3">
            <stop stop-color="#27284B" offset="0%"></stop>
            <stop stop-color="#2D2E57" offset="100%"></stop>
        </linearGradient>
    </defs>
    <g id="Page-2" stroke="none" stroke-width="1" fill="none" fill-rule="evenodd">
        <g id="Oval-Copy-60">
            <mask id="mask-2" fill="white">
                <use xlink:href="#path-1"></use>
            </mask>
            <use id="Mask" fill="#27284B" xlink:href="#path-1"></use>
            <path d="M475.493155,387.275422 L788.849318,191.468759 C816.894165,173.944394 853.835311,182.472929 871.359676,210.517776 C888.884042,238.562623 880.355506,275.503769 852.310659,293.028134 L538.954495,488.834797 C510.909648,506.359163 473.968503,497.830627 456.444137,469.78578 C438.919772,441.740933 447.448307,404.799787 475.493155,387.275422 Z M924.261818,106.853638 L1730.38936,-396.870756 C1758.43421,-414.395121 1795.37535,-405.866586 1812.89972,-377.821739 C1830.42408,-349.776892 1821.89555,-312.835746 1793.8507,-295.311381 L987.723159,208.413013 C959.678312,225.937378 922.737167,217.408843 905.212801,189.363996 C887.688436,161.319149 896.216971,124.378003 924.261818,106.853638 Z M365.367002,648.415098 L875.279699,329.786282 C903.324546,312.261916 940.265691,320.790452 957.790057,348.835299 C975.314422,376.880146 966.785887,413.821291 938.74104,431.345657 L428.828343,749.974473 C400.783496,767.498838 363.842351,758.970303 346.317985,730.925456 C328.79362,702.880609 337.322155,665.939463 365.367002,648.415098 Z M1344.99181,36.2775796 L1816.81974,-258.553234 C1844.86459,-276.077599 1881.80573,-267.549064 1899.3301,-239.504217 C1916.85446,-211.459369 1908.32593,-174.518224 1880.28108,-156.993858 L1408.45315,137.836955 C1380.4083,155.36132 1343.46716,146.832785 1325.94279,118.787938 C1308.41843,90.7430906 1316.94696,53.801945 1344.99181,36.2775796 Z M1011.75011,244.510105 L1208.5214,121.553756 C1236.56625,104.029391 1273.50739,112.557927 1291.03176,140.602774 C1308.55612,168.647621 1300.02759,205.588766 1271.98274,223.113132 L1075.21145,346.06948 C1047.1666,363.593845 1010.22546,355.06531 992.701092,327.020463 C975.176727,298.975616 983.705262,262.03447 1011.75011,244.510105 Z M870.729806,524.954588 L1484.3177,141.54232 C1512.36254,124.017955 1549.30369,132.54649 1566.82806,160.591337 C1584.35242,188.636184 1575.82389,225.57733 1547.77904,243.101695 L934.191147,626.513964 C906.146299,644.038329 869.205154,635.509794 851.680788,607.464947 C834.156423,579.4201 842.684959,542.478954 870.729806,524.954588 Z M156.640449,971.167142 L738.491036,607.586543 C766.535883,590.062177 803.477028,598.590713 821.001394,626.63556 C838.525759,654.680407 829.997224,691.621553 801.952377,709.145918 L220.10179,1072.72652 C192.056943,1090.25088 155.115797,1081.72235 137.591432,1053.6775 C120.067066,1025.63265 128.595602,988.691508 156.640449,971.167142 Z M1647.23586,39.7397524 L1903.25012,-120.235711 C1931.29497,-137.760077 1968.23611,-129.231541 1985.76048,-101.186694 C2003.28484,-73.1418471 1994.75631,-36.2007015 1966.71146,-18.6763361 L1710.6972,141.299128 C1682.65236,158.823493 1645.71121,150.294958 1628.18684,122.25011 C1610.66248,94.2052634 1619.19101,57.2641178 1647.23586,39.7397524 Z M354.151396,1040.07382 L1069.29866,593.200214 C1097.34351,575.675848 1134.28466,584.204384 1151.80902,612.249231 C1169.33339,640.294078 1160.80485,677.235223 1132.76,694.759589 L417.612737,1141.6332 C389.56789,1159.15756 352.626744,1150.62903 335.102379,1122.58418 C317.578013,1094.53933 326.106549,1057.59819 354.151396,1040.07382 Z M1213.17444,503.296647 L1373.97679,402.816191 C1402.02164,385.291825 1438.96278,393.820361 1456.48715,421.865208 C1474.01151,449.910055 1465.48298,486.8512 1437.43813,504.375566 L1276.63579,604.856022 C1248.59094,622.380388 1211.64979,613.851852 1194.12543,585.807005 C1176.60106,557.762158 1185.1296,520.821013 1213.17444,503.296647 Z M1517.85257,312.912624 L1896.58441,76.254707 C1924.62925,58.7303416 1961.5704,67.258877 1979.09476,95.3037241 C1996.61913,123.348571 1988.09059,160.289717 1960.04575,177.814082 L1581.31391,414.471999 C1553.26906,431.996365 1516.32792,423.467829 1498.80355,395.422982 C1481.27919,367.378135 1489.80772,330.43699 1517.85257,312.912624 Z M432.118495,1183.67979 L912.409707,883.560532 C940.454554,866.036167 977.3957,874.564702 994.920065,902.609549 C1012.44443,930.654396 1003.9159,967.595542 975.871048,985.119907 L495.579836,1285.23917 C467.534989,1302.76353 430.593843,1294.235 413.069478,1266.19015 C395.545113,1238.1453 404.073648,1201.20416 432.118495,1183.67979 Z M1062.63295,789.690632 L1602.16713,452.552258 C1630.21198,435.027893 1667.15312,443.556428 1684.67749,471.601275 C1702.20185,499.646122 1693.67332,536.587268 1665.62847,554.111633 L1126.09429,891.250007 C1098.04944,908.774372 1061.1083,900.245837 1043.58393,872.20099 C1026.05957,844.156143 1034.5881,807.214997 1062.63295,789.690632 Z M1752.39037,358.682358 L2315.19858,7.00075994 C2343.24342,-10.5236055 2380.18457,-1.99507 2397.70894,26.0497771 C2415.2333,54.0946241 2406.70477,91.0357697 2378.65992,108.560135 L1815.85171,460.241733 C1787.80687,477.766098 1750.86572,469.237563 1733.34136,441.192716 C1715.81699,413.147869 1724.34553,376.206723 1752.39037,358.682358 Z M518.548876,1321.99731 L806.300439,1142.19018 C834.345286,1124.66581 871.286431,1133.19435 888.810797,1161.2392 C906.335162,1189.28404 897.806627,1226.22519 869.76178,1243.74956 L582.010217,1423.55669 C553.96537,1441.08105 517.024224,1432.55252 499.499859,1404.50767 C481.975493,1376.46282 490.504029,1339.52168 518.548876,1321.99731 Z M954.407861,1049.64239 L1242.15942,869.835258 C1270.20427,852.310893 1307.14542,860.839428 1324.66978,888.884275 C1342.19415,916.929122 1333.66561,953.870268 1305.62076,971.394633 L1017.8692,1151.20177 C989.824355,1168.72613 952.883209,1160.1976 935.358844,1132.15275 C917.834478,1104.1079 926.363014,1067.16676 954.407861,1049.64239 Z M1386.03521,779.931692 L2162.54126,294.716856 C2190.58611,277.19249 2227.52725,285.721026 2245.05162,313.765873 C2262.57599,341.81072 2254.04745,378.751866 2226.0026,396.276231 L1449.49655,881.491067 C1421.4517,899.015433 1384.51055,890.486897 1366.98619,862.44205 C1349.46182,834.397203 1357.99036,797.456057 1386.03521,779.931692 Z M1230.20416,1069.63095 L1486.21842,909.655491 C1514.26327,892.131126 1551.20441,900.659661 1568.72878,928.704508 C1586.25314,956.749355 1577.72461,993.690501 1549.67976,1011.21487 L1293.6655,1171.19033 C1265.62065,1188.7147 1228.67951,1180.18616 1211.15514,1152.14131 C1193.63078,1124.09647 1202.15931,1087.15532 1230.20416,1069.63095 L1230.20416,1069.63095 Z M613.442538,1455.02639 L1085.27047,1160.19558 C1113.31532,1142.67121 1150.25646,1151.19975 1167.78083,1179.24459 C1185.30519,1207.28944 1176.77666,1244.23059 1148.73181,1261.75495 L676.903879,1556.58577 C648.859031,1574.11013 611.917886,1565.5816 594.39352,1537.53675 C576.869155,1509.4919 585.397691,1472.55076 613.442538,1455.02639 Z M1635.38375,816.446646 L2248.97164,433.034378 C2277.01649,415.510013 2313.95763,424.038548 2331.482,452.083395 C2349.00637,480.128242 2340.47783,517.069388 2312.43298,534.593753 L1698.84509,918.006022 C1670.80024,935.530387 1633.8591,927.001852 1616.33473,898.957005 C1598.81037,870.912158 1607.3389,833.971012 1635.38375,816.446646 Z M640.629949,1630.36303 L1393.86198,1159.69142 C1421.90683,1142.16705 1458.84797,1150.69559 1476.37234,1178.74043 C1493.89671,1206.78528 1485.36817,1243.72643 1457.32332,1261.25079 L704.09129,1731.9224 C676.046443,1749.44677 639.105298,1740.91823 621.580932,1712.87339 C604.056567,1684.82854 612.585102,1647.88739 640.629949,1630.36303 Z M1531.3903,1073.75418 L2156.75246,682.984535 C2184.79731,665.460169 2221.73846,673.988705 2239.26282,702.033552 C2256.78719,730.078399 2248.25865,767.019545 2220.2138,784.54391 L1594.85164,1175.31356 C1566.8068,1192.83792 1529.86565,1184.30939 1512.34129,1156.26454 C1494.81692,1128.21969 1503.34546,1091.27855 1531.3903,1073.75418 Z M763.029275,1746.20466 L1186.19334,1481.7824 C1214.23819,1464.25804 1251.17933,1472.78657 1268.7037,1500.83142 C1286.22806,1528.87627 1277.69953,1565.81741 1249.65468,1583.34178 L826.490616,1847.76403 C798.445769,1865.2884 761.504623,1856.75986 743.980258,1828.71502 C726.455893,1800.67017 734.984428,1763.72902 763.029275,1746.20466 Z M1327.9533,1393.20095 L1706.68514,1156.54303 C1734.72998,1139.01867 1771.67113,1147.5472 1789.19549,1175.59205 C1806.71986,1203.6369 1798.19132,1240.57804 1770.14648,1258.10241 L1391.41464,1494.76032 C1363.36979,1512.28469 1326.42865,1503.75615 1308.90428,1475.71131 C1291.37992,1447.66646 1299.90845,1410.72531 1327.9533,1393.20095 Z M1859.0242,1061.35102 L2472.58781,677.953922 C2500.63266,660.429557 2537.57381,668.958092 2555.09817,697.002939 C2572.62254,725.047786 2564.094,761.988932 2536.04916,779.513297 L1922.48554,1162.9104 C1894.44069,1180.43476 1857.49955,1171.90623 1839.97518,1143.86138 C1822.45082,1115.81653 1830.97935,1078.87539 1859.0242,1061.35102 Z M1056.81005,1754.95528 L1892.55907,1232.72132 C1920.60392,1215.19696 1957.54506,1223.72549 1975.06943,1251.77034 C1992.5938,1279.81519 1984.06526,1316.75633 1956.02041,1334.2807 L1120.27139,1856.51465 C1092.22654,1874.03902 1055.2854,1865.51048 1037.76103,1837.46563 C1020.23666,1809.42079 1028.7652,1772.47964 1056.81005,1754.95528 Z M2036.43485,1142.81776 L2386.4976,924.074274 C2414.54245,906.549908 2451.4836,915.078444 2469.00796,943.123291 C2486.53233,971.168138 2478.00379,1008.10928 2449.95895,1025.63365 L2099.89619,1244.37713 C2071.85135,1261.9015 2034.9102,1253.37296 2017.38584,1225.32812 C1999.86147,1197.28327 2008.39001,1160.34212 2036.43485,1142.81776 L2036.43485,1142.81776 Z M1143.24043,1893.2728 L1689.12207,1552.16809 C1717.16692,1534.64373 1754.10806,1543.17226 1771.63243,1571.21711 C1789.15679,1599.26196 1780.62826,1636.2031 1752.58341,1653.72747 L1206.70177,1994.83217 C1178.65692,2012.35654 1141.71578,2003.828 1124.19141,1975.78316 C1106.66704,1947.73831 1115.19558,1910.79716 1143.24043,1893.2728 Z M1841.46113,1456.97608 L2380.9561,1119.86221 C2409.00094,1102.33785 2445.94209,1110.86638 2463.46645,1138.91123 C2480.99082,1166.95608 2472.46228,1203.89722 2444.41744,1221.42159 L1904.92247,1558.53545 C1876.87763,1576.05982 1839.93648,1567.53128 1822.41211,1539.48644 C1804.88775,1511.44159 1813.41628,1474.50045 1841.46113,1456.97608 Z" id="Shape" fill="url(#linearGradient-3)" mask="url(#mask-2)"></path>
        </g>
    </g>
</svg>